<svg xmlns="http://www.w3.org/2000/svg" width="32" height="32" id="reload"><g transform="translate(0 -1020.362)"><circle cx="16" cy="1036.362" r="16" fill="#1d67b1"></circle><path style="line-height:normal;text-indent:0;text-align:start;text-decoration-line:none;text-decoration-style:solid;text-decoration-color:#000;text-transform:none;block-progression:tb;isolation:auto;mix-blend-mode:normal" fill="#154082" d="M21.21 31.105a16 16 0 0 0 .587-.193 16 16 0 0 0 1.46-.652 16 16 0 0 0 1.388-.797 16 16 0 0 0 1.3-.93 16 16 0 0 0 1.201-1.054 16 16 0 0 0 1.092-1.172 16 16 0 0 0 .967-1.272 16 16 0 0 0 .836-1.365 16 16 0 0 0 .695-1.44 16 16 0 0 0 .55-1.501 16 16 0 0 0 .19-.747L22 10.506v-.002a.5.5 0 0 0-.508-.506.5.5 0 0 0-.492.508v.617l-.064-.064c-.084-.084-.172-.158-.258-.237-.062-.055-.12-.114-.184-.168-.097-.081-.198-.156-.299-.232-.079-.06-.157-.122-.238-.178-.077-.053-.157-.1-.236-.15-.102-.065-.202-.132-.307-.192-.083-.047-.17-.087-.256-.13-.108-.056-.215-.115-.326-.165l-.012-.005c-.062-.028-.126-.049-.19-.075-.131-.054-.263-.11-.398-.156l-.005-.002a6.949 6.949 0 0 0-.59-.172h-.004A6.895 6.895 0 0 0 17 9.072l-.01-.002a6.885 6.885 0 0 0-1.574-.049 6.966 6.966 0 0 0-3.574 1.346 6.952 6.952 0 0 0-1.354 1.317v.002a7.006 7.006 0 0 0-.361.505v.002a7.051 7.051 0 0 0-.315.536v.001a7.018 7.018 0 0 0-.263.56v.001a7.04 7.04 0 0 0-.215.58v.002a7.033 7.033 0 0 0-.164.598v.002a6.998 6.998 0 0 0-.11.611v.002a6.981 6.981 0 0 0 .13 2.521v.002c.05.21.109.42.18.627v.002c.006.02.016.039.023.059.074.212.157.42.25.621.04.089.086.173.13.26a6.947 6.947 0 0 0 .377.652c.083.125.169.246.258.365.054.072.106.146.162.215.148.181.302.355.465.52.002.002.006.003.008.006l.004.005L21.21 31.105z" color="#000" font-family="sans-serif" font-weight="400" transform="translate(0 1020.362)"></path><path style="line-height:normal;text-indent:0;text-align:start;text-decoration-line:none;text-decoration-style:solid;text-decoration-color:#000;text-transform:none;block-progression:tb;isolation:auto;mix-blend-mode:normal" fill="#fff" d="M8.354 1.01a6.98 6.98 0 0 0-.938.013v.002a7.005 7.005 0 0 0-6.047 9.215 7.006 7.006 0 0 0 8.03 4.62 7.006 7.006 0 0 0 5.581-7.393.5.5 0 1 0-.998.074A5.992 5.992 0 0 1 9.2 13.877a5.994 5.994 0 0 1-6.883-3.959 5.992 5.992 0 0 1 3.07-7.32 5.993 5.993 0 0 1 7.089 1.41H11.5a.5.5 0 1 0 0 1h2a.5.5 0 0 0 .5-.5v-2A.5.5 0 0 0 13.492 2a.5.5 0 0 0-.492.508v.617A7.004 7.004 0 0 0 8.354 1.01Z" color="#000" font-family="sans-serif" font-weight="400" overflow="visible" transform="translate(8 1028.362)"></path></g></svg>